<?xml version="1.0" encoding="UTF-8"?>
<svg xmlns="http://www.w3.org/2000/svg" viewBox="0 0 1417.32 1417.32">
  <defs>
    <style>
      .cls-1 {
        fill: #babbbe;
      }

      .cls-2 {
        fill: #282425;
      }

      .cls-3 {
        fill: #919396;
      }

      .cls-4 {
        fill: none;
        stroke: #282425;
        stroke-linecap: round;
        stroke-miterlimit: 10;
        stroke-width: 20px;
      }

      .cls-5 {
        fill: #58595b;
      }
    </style>
  </defs>
  <g id="Vrstva_1" data-name="Vrstva 1">
    <path class="cls-1" d="M708.66,399.94l267.4,463.05H441.26l267.4-463.05M708.66,0L94.82,1062.99H1322.51L708.66,0h0Z"/>
  </g>
  <g id="Vrstva_7" data-name="Vrstva 7">
    <path class="cls-3" d="M908.92,484.2c4.48,11.33,10.15,21.92,17.44,31.69,5.79,7.76,16.91,1.32,12.95-7.57-6.29-14.12-11.62-28.62-16.14-43.39-2.83-9.27-16.48-5.43-14.46,3.99,1.34,6.25,2.68,12.5,4.01,18.75l12.54-7.3c-3.88-4.16-6.66-8.9-8.37-14.32-2.9-9.17-17.39-5.25-14.46,3.99,2.51,7.94,6.55,14.85,12.23,20.94,5.39,5.77,14.02-.35,12.54-7.3-1.34-6.25-2.68-12.5-4.01-18.75l-14.46,3.99c4.9,16.03,10.83,31.67,17.65,46.98,4.32-2.52,8.63-5.05,12.95-7.57-6.46-8.66-11.95-18.04-15.93-28.11-1.48-3.75-5.03-6.41-9.23-5.24-3.58,1-6.74,5.43-5.24,9.23h0Z"/>
    <path class="cls-3" d="M676.57,137.81c57.24,102.82,114.74,205.51,172.5,308.04,57.06,101.29,114.22,202.53,171.49,303.71,31.32,55.33,63.1,110.45,98.49,163.31,5.45,8.15,12.75,14.57,22.41,17.23,8.98,2.47,20.93,1.36,28.9-3.78,16.22-10.46,25.12-33.87,13.45-51.31-31.81-47.51-60.72-96.87-88.98-146.55-28.49-50.09-56.72-100.34-85.06-150.52-57.5-101.8-114.99-203.6-172.15-305.59-32.18-57.42-64.28-114.89-96.29-172.4-9.55-17.15-34.53-24.27-51.31-13.45s-23.67,32.96-13.45,51.31h0Z"/>
    <path class="cls-3" d="M1173.86,833.89c-45.45-83.64-92.15-166.6-140.1-248.84-47.95-82.23-97.15-163.74-147.56-244.48-14.01-22.44-28.12-44.83-42.33-67.15-13.83-21.74-29.52-43.1-39.86-66.8l3.78,8.96c-.47-1.1-.93-2.21-1.37-3.32-12.05,15.82-24.11,31.65-36.16,47.47,1.32-.17,2.47-.22,3.8-.14l-9.97-1.34c1.25,.19,2.34,.45,3.54,.86l-8.96-3.78c1.56,.67,2.93,1.46,4.31,2.43l-7.59-5.86c2.12,1.69,3.91,3.58,5.6,5.7l-5.86-7.59c6.59,8.85,10.48,19.62,15.03,29.59,5.36,11.72,10.72,23.45,16.08,35.17,14.12-18.36,28.23-36.72,42.35-55.09-.9-.22-1.77-.52-2.61-.91l8.96,3.78c-1.25-.64-2.32-1.31-3.45-2.14l7.59,5.86c-1.43-1.23-2.66-2.53-3.84-4l5.86,7.59c-3.56-4.87-5.9-10.37-8.36-15.84-3.11-6.92-6.22-13.83-9.34-20.75-6.09-13.53-12.18-27.06-18.27-40.59-12.31-27.36-24.63-54.72-36.94-82.09-3.62-8.04-14.27-14.99-22.41-17.23-8.98-2.47-20.93-1.36-28.9,3.78s-15.06,12.85-17.23,22.41l-1.34,9.97c.02,6.77,1.73,13.08,5.12,18.93,13.94,30.97,27.88,61.94,41.82,92.91,6.9,15.34,13.8,30.67,20.7,46.01,2.92,6.5,5.54,13.27,9.55,19.2,8.28,12.25,18.77,21.18,33.15,25.43,14.45,4.28,30.45-1.84,39.42-13.44,4.16-5.39,6.48-10.99,7.38-17.74,1.19-8.88-.71-15.73-4.45-23.91-8.04-17.58-15.92-35.25-24.12-52.76-4.02-8.58-9.53-17.17-16.47-23.62-10.47-9.72-25.39-17.7-40.15-15.8-6.77,.02-13.08,1.73-18.93,5.12-4.37,2.36-7.88,5.58-10.52,9.66-6.62,8.57-11.05,21.95-6.71,32.69,5.3,13.13,11.25,25.58,18.64,37.64,6.02,9.83,12.36,19.47,18.57,29.19,12.85,20.13,25.62,40.3,38.31,60.53,25.56,40.72,50.81,81.64,75.75,122.75,49.54,81.66,97.83,164.08,144.87,247.21,26.69,47.18,52.98,94.6,78.86,142.23,9.38,17.26,34.65,24.19,51.31,13.45,17.51-11.29,23.48-32.85,13.45-51.31h0Z"/>
    <path class="cls-3" d="M1131.14,900.62c7.78,18.88,17.87,36.17,33.65,49.62,7.69,6.56,16.1,10.98,26.52,10.98,9.2,0,20.18-4.09,26.52-10.98,6.56-7.15,11.43-16.53,10.98-26.52s-3.48-20.12-10.98-26.52c-4.63-3.95-8.79-8.29-12.56-13.07l5.86,7.59c-4.34-5.74-7.94-11.87-10.81-18.47l3.78,8.96-.63-1.53c-3.89-9.43-8.07-17.05-17.23-22.41-8.04-4.7-19.88-6.7-28.9-3.78s-17.83,8.56-22.41,17.23-7.53,19.8-3.78,28.9h0Z"/>
    <path class="cls-3" d="M1173.82,883.14H445.91c-19.62,0-38.41,17.25-37.5,37.5,.91,20.32,16.48,37.5,37.5,37.5h727.91c19.62,0,38.41-17.25,37.5-37.5-.91-20.32-16.48-37.5-37.5-37.5h0Z"/>
    <path class="cls-3" d="M424.14,925l11.08,9.49c3.4,3.66,7.42,6.24,12.07,7.75,4.47,2.35,9.28,3.42,14.45,3.23,5.16,.19,9.98-.88,14.45-3.23,4.65-1.51,8.67-4.1,12.07-7.75,6.56-7.15,11.43-16.53,10.98-26.52s-3.49-20.1-10.98-26.52l-11.08-9.49c-3.4-3.66-7.42-6.24-12.07-7.75-4.47-2.35-9.28-3.42-14.45-3.23-5.16-.19-9.98,.88-14.45,3.23-4.65,1.51-8.67,4.1-12.07,7.75-6.56,7.15-11.43,16.53-10.98,26.52s3.49,20.1,10.98,26.52h0Z"/>
    <path class="cls-3" d="M501.3,935.98c77.97,0,155.93,0,233.9,0h365.84c19.62,0,38.41-17.25,37.5-37.5s-16.48-37.5-37.5-37.5h-233.9c-77.97,0-155.93,0-233.9,0h-131.94c-19.62,0-38.41,17.25-37.5,37.5s16.48,37.5,37.5,37.5h0Z"/>
    <path class="cls-3" d="M401.61,958.08c7.38-.7,14.75-1.41,22.13-2.11,5.47-.52,9.59-6.02,6.48-11.29-4.84-8.18-12.44-14.02-21.6-16.57s-13.29,11.88-3.99,14.46c5.48,1.52,9.74,4.77,12.64,9.68l6.48-11.29c-7.38,.7-14.75,1.41-22.13,2.11-4.03,.39-7.5,3.17-7.5,7.5,0,3.76,3.44,7.89,7.5,7.5h0Z"/>
    <path class="cls-3" d="M1231.36,942.73c-1.59-1.05-3.17-2.1-4.76-3.15s-4.01-1.24-5.78-.76-3.63,1.82-4.48,3.45c-1.99,3.76-.81,7.94,2.69,10.26l4.76,3.15c1.57,1.04,4.01,1.24,5.78,.76s3.63-1.82,4.48-3.45c1.99-3.76,.81-7.94-2.69-10.26h0Z"/>
  </g>
  <g id="Vrstva_6" data-name="Vrstva 6">
    <path class="cls-5" d="M616.37,406.35l.39,15.25c.29,11.24,8.34,20.6,19.51,22.1s21.65-5.25,24.69-16.12c3.67-13.13,2.04-25.62,.62-38.86-.26-2.38-.45-4.77-.53-7.17-.06-1.72,.91-5.78,.16-7.21-.49,3.09-.58,3.78-.28,2.06,.08-.52,.18-1.03,.31-1.54,.12-.56,1.19-3.47,1.04-3.74,.37,.66-2.24,4.1-.42,1.14,.83-1.36,1.62-2.61,2.58-3.88,3.29-4.33,3.64-12.37,2.27-17.34-1.44-5.22-5.47-10.88-10.34-13.45-11.87-6.27-23.15-1.98-30.78,8.07-8.04,10.59-10.21,25.33-9.41,38.29,.35,5.61,1.28,11.16,1.82,16.74,.3,3.06,.51,6.13,.46,9.2-.02,1.43,.13,3.15-.25,4.55l.26-2.39c-.24,1.2-.53,2.38-.89,3.55,14.73,1.99,29.46,3.99,44.2,5.98l-.39-15.25c-.3-11.76-10.13-23.05-22.5-22.5s-22.82,9.89-22.5,22.5h0Z"/>
    <path class="cls-5" d="M634.03,352.03c3.49,18.12,10.61,35.76,20.46,51.35,6.28,9.94,20.33,14.81,30.78,8.07s14.8-20.14,8.07-30.78c-2.22-3.51-4.31-7.08-6.2-10.78-.81-1.58-1.55-3.19-2.33-4.79-1.03-2.32-.98-2.16,.14,.49-.34-.82-.67-1.65-.99-2.48-2.9-7.47-5.04-15.17-6.55-23.04-2.23-11.58-16.75-19.25-27.68-15.71-12.35,4-18.1,15.27-15.71,27.68h0Z"/>
    <path class="cls-5" d="M671.09,370.41c-24.29,24.56-37,56.35-49.74,87.79-1.49,3.68-3,7.36-4.52,11.04s1.75-4.05-.51,1.2c-.84,1.94-1.68,3.87-2.55,5.8-3.47,7.75-7.26,15.34-11.42,22.74-9.04,16.06-19.51,31.27-29.78,46.56-12.58,18.73-25.17,37.45-37.75,56.18-6.58,9.79-2.21,25.35,8.07,30.78,11.35,6,23.76,2.38,30.78-8.07,21.26-31.64,43.8-62.77,63.34-95.52,9.12-15.28,16.38-31.31,23.21-47.71,3.05-7.34,5.99-14.73,9.01-22.08,.7-1.71,1.42-3.42,2.12-5.13,.97-2.35-.71,1.69-.73,1.73,.49-.89,.84-1.96,1.25-2.91,1.57-3.61,3.18-7.2,4.87-10.76,3.67-7.74,7.69-15.32,12.31-22.54,1.11-1.74,2.26-3.45,3.44-5.14,.59-.85,1.21-1.67,1.8-2.51,1.68-2.39,.28,.06-.71,.86,3.43-2.78,6.16-7.3,9.31-10.48,8.29-8.38,8.99-23.57,0-31.82s-22.98-8.94-31.82,0h0Z"/>
    <path class="cls-5" d="M606.09,412.9c-16.89,37.12-33.78,74.24-50.67,111.36-4.86,10.69-3.42,24.72,8.07,30.78,10.01,5.29,25.4,3.28,30.78-8.07,22.73-47.97,36.8-98.61,42.29-151.39,1.15-11.09-9.45-20.75-19.51-22.1s-22.79,5.06-24.69,16.12c-1.78,10.37-4.37,20.55-7.68,30.53-1.61,4.85-3.36,9.64-5.24,14.39-.44,1.12-.9,2.23-1.35,3.35-1.58,3.92-.07,.35,.17-.37-.95,2.82-2.43,5.57-3.67,8.28-8.9,19.47-19.22,38.26-29.28,57.15-20.58,38.63-41.35,77.18-63.76,114.79-22.87,38.39-48.61,74.67-73.42,111.78-7.36,11-15.69,22.56-11.51,36.63,3.21,10.79,13.71,18.58,24.98,18.57,5.61,0,11.69-1.06,17.08-2.78,19.48-6.21,34.08-19.97,45.61-36.39,10.25-14.6,16.72-31.32,23.14-47.84,1.47-3.79,2.99-7.56,4.53-11.32,1.23-3.01-2.32,5.22-.29,.73,.4-.88,.77-1.76,1.17-2.64,.89-1.97,1.8-3.92,2.75-5.86,1.77-3.62,3.65-7.18,5.71-10.65,.95-1.6,1.94-3.19,2.97-4.74,1.11-1.67,5.87-6.88,1.34-2.14,2.66-2.78,4.96-5.79,7.82-8.41,.66-.6,1.36-1.16,2.02-1.76,2.11-1.95-3.77,2.65-1.39,1.04,1.87-1.26,3.69-2.53,5.66-3.64,.79-.44,1.59-.87,2.41-1.27l.61-.3c1.71-.78,1.66-.77-.16,.02l-1.41,.6c2.73-.75,2.07-.97-1.97-.69-6.88-.25-13.47-4.76-15.45-11.55-.05-.16-.59-6.28-.61-2.69,0-.65,1.45-5.53,.16-2.4-.22,.53-.75,1.91-.78,2.37,1.46-3.28,1.8-4.15,1.01-2.63-.4,.76-.82,1.51-1.25,2.24-11.17,19.91-22.48,39.75-33.71,59.62-22.64,40.04-45.29,80.08-67.93,120.12l-3.91,6.91c-.81,1.44-1.61,2.89-2.44,4.32l-.49,.86c-1.01,1.55-.95,1.57,.18,.04l.89-1.13c-1.39,1.35-1.32,1.4,.21,.14l1.2-.91c19.23,15.74,27.56,18.96,24.97,9.66-.73-2.54-.2,5.36,.27,.29-.26,2.78-.61,3.11,.17,.18,.31-1.19,3.33-8.83,1-3.6,1.5-3.37,2.96-6.79,4.34-10.2,2.22-5.47,3.32-10.79,3.91-16.7,1.19-11.77-2.73-24.18-11.6-32.25-12.25-11.15-30.9-11.93-45.01-3.81-10.19,5.87-17.11,15.54-22.66,25.64-5.45,9.93-10.89,19.85-16.47,29.71-11.12,19.66-22.56,39.14-34.08,58.57-23.52,39.64-47.18,79.2-70.78,118.8-2.32,3.89-4.7,7.72-7.15,11.53s.22-.7,.65-.73c-.21,.01-1.75,2.02-2.09,2.37-.26,.27-3.65,4.1-1.2,1.4,2.2-2.42-.91,.48-1.61,.9-16.42,9.72-13.55,36.22,5.37,41.12,16.42,4.26,34.33,.82,48.33-8.75,13.41-9.17,23.18-21.92,30.87-36.09,6.86-12.63,13.05-25.61,20.04-38.19s14.83-25.75,22.83-38.26,16.39-24.78,25.14-36.78c2.15-2.94,4.17-6.26,6.64-8.95-4.11,4.48-.5,.65,.29-.29,.99-1.18,2.01-2.35,3.1-3.45,.72-.73,1.49-1.39,2.21-2.11,3.65-3.65-4,2.72,.29-.03,4.06-2.6-4.64,.92,.14-.01-3.96,.36-4.73,.48-2.3,.38,2.42,.15,1.67,.05-2.26-.31,4.28,.85-4.31-2.85-.77-.37l-2.57-2.11c1.66,1.63,1.27,.98-1.16-1.94l.59,.99c-1.31-2.13-1.96-4.44-1.97-6.94l.43-3.35c1.49-3.11,1.64-3.6,.43-1.48,.37-.53,3.42-3.79,.74-1.07-1.05,1.06-2.07,2.18-3.08,3.28-3.02,3.3-5.8,6.89-8.42,10.51-7.05,9.72-11.7,20.87-16.17,31.95-2.16,5.35-4.16,10.76-6.24,16.13-.48,1.23-.96,2.46-1.45,3.69-.61,1.53-3.43,7.02-.22,.69-1.36,2.68-2.43,5.51-3.78,8.2-1.13,2.26-2.34,4.49-3.64,6.66-.64,1.07-1.31,2.13-2,3.16-.46,.69-.93,1.37-1.41,2.04-1.38,1.88-.96,1.34,1.28-1.61-2.12,1.86-3.77,4.36-5.88,6.29-1.71,1.56-4.12,2.1,.72-.35-1.45,.73-2.82,1.97-4.22,2.83-10.01,6.18-14.76,20.4-8.07,30.78s20.07,14.68,30.78,8.07c23.67-14.6,33.91-39.21,43.4-64.09,.95-2.49,1.9-4.98,2.87-7.46,.49-1.24,.99-2.47,1.48-3.71,1.96-4.92-1.81,3.96,.31-.73,2.25-4.97,4.62-9.86,7.48-14.51,.79-1.28,1.66-2.51,2.47-3.78,.29-.45,.97-1.07,1.12-1.57,.02-.06-3.11,3.71-1.56,2.01,2.01-2.21,4.02-4.45,6.02-6.68,8.38-9.39,13.29-20.33,10.7-33.07-4.05-19.95-27.66-31.22-46.37-25.72-18.29,5.37-28.79,21.5-39.38,36.06-18.76,25.77-35.8,52.79-51,80.8-7.91,14.58-14.38,30.33-23.93,43.94-.22,.32-1.12,1.97-1.47,2.05l1.45-1.9c-.53,.65-1.07,1.29-1.63,1.92-1.27,1.45-2.6,2.85-4,4.17-.57,.54-1.22,1.02-1.76,1.58-2.04,2.06,3.29-2.12,.8-.6-1.58,.97-3.07,2.06-4.7,2.95-.69,.38-1.44,.68-2.11,1.08-2.47,1.46,3.79-1.15,1.03-.44-1.99,.52-4,1.1-5.99,1.63-2.4,.64,2.02-.39,2.17-.3-.45-.27-2.49,.06-3.06,.08-.73,.03-3.25-.4-.07,.14,3.81,.65-1.18-.39-1.56-.48l5.37,41.12c14.91-8.83,23-24.02,31.59-38.42,8.1-13.6,16.21-27.19,24.31-40.79,16.49-27.67,33.05-55.3,49.42-83.04,7.98-13.53,15.9-27.11,23.69-40.76,7.51-13.18,14.45-26.73,22.17-39.78,.8-1.35,1.68-2.64,2.51-3.97,2.65-4.25-3.45,2.93,.35-.28,1.05-.88,5.03-3.87,.09-.41,3.89-2.73-4.69,.88-.02-.17,4.92-1.12-5.19-.33-.23,.04l-3.17-.45c2.31,.69,1.82,.46-1.47-.7l-2.41-1.85c-2.08-3.02-2.5-3.56-1.25-1.6-1.32-3.54-1.62-4.19-.89-1.94,.51,2.36,.44,1.63-.2-2.2-.15,.3-.19,3.67-.06,3.98l.45-3.29c-.16,.9-.35,1.79-.57,2.67-.37,1.45-2.86,8.08-.74,2.93-3.98,9.66-8.47,18.66-8.71,29.35-.26,11.83,4.38,23.76,15.18,29.67,11.97,6.55,26.03,2.46,34.98-7.03,5.88-6.23,9.61-14.46,13.79-21.85s8.47-14.98,12.71-22.47c15.64-27.65,31.28-55.31,46.91-82.96,8.14-14.4,16.29-28.8,24.43-43.21,3.58-6.34,7.17-12.67,10.75-19.01,4.17-7.38,9.19-14.84,11.42-23.1,2.43-8.99,1.97-18.84-3.08-26.86-7.32-11.61-21.71-15.46-34.41-11.17-13.36,4.51-25.61,13.4-34.55,24.24-9.12,11.06-16.11,23.08-21.83,36.19-3.08,7.05-5.99,14.17-8.77,21.34-1.19,3.05-2.34,6.11-3.55,9.15-.66,1.66-2.96,4.89,.14-.19-.95,1.56-1.53,3.52-2.29,5.19-2.78,6.06-5.86,11.99-9.39,17.64-1.49,2.39-3.09,4.71-4.73,7.01-2.88,4.05,3.37-3.88,.11-.17-1.2,1.37-2.36,2.78-3.61,4.11-1.85,1.97-5.55,4.14-6.85,6.4l2.47-1.9c-.7,.52-1.42,1.03-2.14,1.52-1.44,.97-2.93,1.88-4.46,2.71-1.05,.57-2.57,1-3.5,1.73,3.38-1.39,3.96-1.66,1.73-.82-.83,.29-1.66,.56-2.51,.8-1.28,.37-2.59,.61-3.88,.94-2.41,.42-1.76,.35,1.95-.19-2.46,.11-1.72,.24,2.23,.38,3.31,1.93,6.62,3.86,9.93,5.79,1.39,5.64,2.77,11.29,4.16,16.93,.67-2.25,.37-1.67-.88,1.75,.05,.02,1.95-3.09,2.21-3.49,1.92-2.95,3.86-5.88,5.82-8.8,3.91-5.85,7.88-11.66,11.86-17.46,7.79-11.33,15.66-22.61,23.36-34,15.46-22.87,30.05-46.33,44-70.15,27.32-46.63,53.26-94.33,77.73-142.51,13.91-27.39,26.59-56.07,31.81-86.53-14.73-1.99-29.46-3.99-44.2-5.98-.32,3.03-.68,6.05-1.02,9.08-.5,4.44,.38-2.49-.03,.36-.22,1.51-.43,3.01-.65,4.52-.86,5.72-1.84,11.42-2.93,17.1-2.24,11.66-4.97,23.23-8.17,34.66s-6.69,22.15-10.71,33c-2.11,5.71-4.29,11.41-6.7,16.99,.76-1.76,1.1-2.56,.12-.34-.61,1.39-1.22,2.79-1.84,4.18-1.37,3.06-2.78,6.09-4.21,9.12,12.95,7.57,25.9,15.14,38.86,22.71,16.89-37.12,33.78-74.24,50.67-111.36,4.86-10.69,3.42-24.72-8.07-30.78-9.87-5.21-25.58-3.37-30.78,8.07h0Z"/>
    <path class="cls-5" d="M290.84,1055.49c119.87,0,239.73,0,359.6,0s239.73,0,359.6,0h201.77c11.77,0,23.04-10.35,22.5-22.5-.55-12.19-9.89-22.5-22.5-22.5-119.87,0-239.73,0-359.6,0s-239.73,0-359.6,0h-201.77c-11.77,0-23.04,10.35-22.5,22.5s9.89,22.5,22.5,22.5h0Z"/>
    <path class="cls-5" d="M1224.46,953.52c-115.86,0-231.71,0-347.57,0s-231.71,0-347.57,0h-195.76c-11.77,0-23.04,10.35-22.5,22.5s9.89,22.5,22.5,22.5h347.57c115.86,0,231.71,0,347.57,0,65.25,0,130.51,0,195.76,0,11.77,0,23.04-10.35,22.5-22.5-.55-12.19-9.89-22.5-22.5-22.5h0Z"/>
    <path class="cls-5" d="M330.4,1022.26h894.07c11.77,0,23.04-10.35,22.5-22.5-.55-12.19-9.89-22.5-22.5-22.5H330.4c-11.77,0-23.04,10.35-22.5,22.5s9.89,22.5,22.5,22.5h0Z"/>
  </g>
  <g id="Vrstva_5" data-name="Vrstva 5">
    <path class="cls-2" d="M708.66,39.99l579.2,1003H129.46L708.66,39.99M708.66,0L94.82,1062.99H1322.51L708.66,0h0Z"/>
  </g>
  <g id="Vrstva_4" data-name="Vrstva 4">
    <polyline class="cls-4" points="975.99 862.87 652.54 302.85 221.78 1048.91"/>
    <polyline class="cls-4" points="441.27 862.99 1087.16 862.85 657.23 116.69"/>
    <polyline class="cls-4" points="708.66 400.02 385.54 959.49 1245.03 959.76"/>
  </g>
  <g id="Vrstva_3" data-name="Vrstva 3">
    <path class="cls-2" d="M708.66,118c79.79,0,157.13,15.6,229.88,46.37,34.97,14.79,68.72,33.11,100.29,54.44,31.3,21.15,60.74,45.44,87.5,72.19,26.76,26.76,51.05,56.2,72.19,87.5,21.33,31.57,39.64,65.31,54.44,100.29,30.77,72.74,46.37,150.08,46.37,229.88s-15.6,157.13-46.37,229.88c-14.79,34.97-33.11,68.72-54.44,100.29-21.15,31.3-45.44,60.74-72.19,87.5-26.76,26.76-56.2,51.05-87.5,72.19-31.57,21.33-65.31,39.64-100.29,54.44-72.74,30.77-150.08,46.37-229.88,46.37s-157.13-15.6-229.88-46.37c-34.97-14.79-68.71-33.11-100.29-54.44-31.3-21.15-60.74-45.44-87.5-72.19-26.76-26.76-51.05-56.2-72.19-87.5-21.33-31.57-39.64-65.31-54.44-100.29-30.77-72.74-46.37-150.08-46.37-229.88s15.6-157.13,46.37-229.88c14.79-34.97,33.11-68.71,54.44-100.29,21.15-31.3,45.44-60.74,72.19-87.5,26.76-26.76,56.2-51.05,87.5-72.19,31.57-21.33,65.31-39.64,100.29-54.44,72.74-30.77,150.08-46.37,229.88-46.37m0-118C317.28,0,0,317.28,0,708.66s317.28,708.66,708.66,708.66,708.66-317.28,708.66-708.66S1100.04,0,708.66,0h0Z"/>
  </g>
</svg>